<svg width="669" height="524" viewBox="0 0 669 524" fill="none" xmlns="http://www.w3.org/2000/svg">
<g filter="url(#filter0_d)">
<rect x="10" y="10" width="649" height="504" rx="10" fill="white"/>
</g>
<path d="M248 10L248 514" stroke="black" stroke-opacity="0.1"/>
<path d="M636 464H295" stroke="black" stroke-opacity="0.05" stroke-linecap="round"/>
<path d="M636 364H295" stroke="black" stroke-opacity="0.1" stroke-linecap="round" stroke-dasharray="10 10"/>
<path d="M636 264H295" stroke="black" stroke-opacity="0.1" stroke-linecap="round" stroke-dasharray="10 10"/>
<path d="M636 164L295 164" stroke="black" stroke-opacity="0.1" stroke-linecap="round" stroke-dasharray="10 10"/>
<path d="M636 64L295 64" stroke="black" stroke-opacity="0.1" stroke-linecap="round" stroke-dasharray="10 10"/>
<rect x="560" y="140" width="50" height="324" rx="5" fill="#FFF4E1"/>
<rect x="480" y="268" width="50" height="196" rx="5" fill="#FFF4E1"/>
<rect x="400" y="226" width="50" height="238" rx="5" fill="#FFF4E1"/>
<rect x="320" y="331" width="50" height="133" rx="5" fill="#FFF4E1"/>
<rect x="28" y="31" width="67" height="67" rx="10" fill="#FFF4E1"/>
<rect x="106" y="62" width="46" height="4" rx="2" fill="#313436" fill-opacity="0.1"/>
<rect x="106" y="50" width="63" height="4" rx="2" fill="#313436" fill-opacity="0.1"/>
<rect x="106" y="74" width="89" height="4" rx="2" fill="#313436" fill-opacity="0.1"/>
<rect x="28" y="130" width="67" height="67" rx="10" fill="#FFF4E1"/>
<rect x="106" y="161" width="46" height="4" rx="2" fill="#313436" fill-opacity="0.1"/>
<rect x="106" y="149" width="63" height="4" rx="2" fill="#313436" fill-opacity="0.1"/>
<rect x="106" y="173" width="89" height="4" rx="2" fill="#313436" fill-opacity="0.1"/>
<rect x="28" y="229" width="67" height="67" rx="10" fill="#FFF4E1"/>
<rect x="106" y="260" width="46" height="4" rx="2" fill="#313436" fill-opacity="0.1"/>
<rect x="106" y="248" width="63" height="4" rx="2" fill="#313436" fill-opacity="0.1"/>
<rect x="106" y="272" width="89" height="4" rx="2" fill="#313436" fill-opacity="0.1"/>
<rect x="28" y="328" width="67" height="67" rx="10" fill="#FFF4E1"/>
<rect x="106" y="359" width="46" height="4" rx="2" fill="#313436" fill-opacity="0.1"/>
<rect x="106" y="347" width="63" height="4" rx="2" fill="#313436" fill-opacity="0.1"/>
<rect x="106" y="371" width="89" height="4" rx="2" fill="#313436" fill-opacity="0.1"/>
<rect x="28" y="427" width="67" height="67" rx="10" fill="#FFF4E1"/>
<rect x="106" y="458" width="46" height="4" rx="2" fill="#313436" fill-opacity="0.1"/>
<rect x="106" y="446" width="63" height="4" rx="2" fill="#313436" fill-opacity="0.1"/>
<rect x="106" y="470" width="89" height="4" rx="2" fill="#313436" fill-opacity="0.1"/>
<path d="M68.8131 71.7428H55.5764" stroke="#E0A13A" stroke-width="3" stroke-linecap="round" stroke-linejoin="round"/>
<path d="M68.8131 64.0677H55.5764" stroke="#E0A13A" stroke-width="3" stroke-linecap="round" stroke-linejoin="round"/>
<path d="M60.6274 56.4102H55.5765" stroke="#E0A13A" stroke-width="3" stroke-linecap="round" stroke-linejoin="round"/>
<path fill-rule="evenodd" clip-rule="evenodd" d="M69.1658 47.0413C69.1658 47.0413 55.0913 47.0486 55.0693 47.0486C50.0093 47.0798 46.8761 50.4091 46.8761 55.4874V72.3468C46.8761 77.4508 50.0331 80.7929 55.1371 80.7929C55.1371 80.7929 69.2098 80.7874 69.2336 80.7874C74.2936 80.7563 77.4286 77.4251 77.4286 72.3468V55.4874C77.4286 50.3834 74.2698 47.0413 69.1658 47.0413Z" stroke="#E0A13A" stroke-width="3" stroke-linecap="round" stroke-linejoin="round"/>
<path d="M68.8131 170.743H55.5764" stroke="#E0A13A" stroke-width="3" stroke-linecap="round" stroke-linejoin="round"/>
<path d="M68.8131 163.068H55.5764" stroke="#E0A13A" stroke-width="3" stroke-linecap="round" stroke-linejoin="round"/>
<path d="M60.6274 155.41H55.5765" stroke="#E0A13A" stroke-width="3" stroke-linecap="round" stroke-linejoin="round"/>
<path fill-rule="evenodd" clip-rule="evenodd" d="M69.1658 146.041C69.1658 146.041 55.0913 146.049 55.0693 146.049C50.0093 146.08 46.8761 149.409 46.8761 154.487V171.347C46.8761 176.451 50.0331 179.793 55.1371 179.793C55.1371 179.793 69.2098 179.787 69.2336 179.787C74.2936 179.756 77.4286 176.425 77.4286 171.347V154.487C77.4286 149.383 74.2698 146.041 69.1658 146.041Z" stroke="#E0A13A" stroke-width="3" stroke-linecap="round" stroke-linejoin="round"/>
<path d="M68.8131 269.743H55.5764" stroke="#E0A13A" stroke-width="3" stroke-linecap="round" stroke-linejoin="round"/>
<path d="M68.8131 262.068H55.5764" stroke="#E0A13A" stroke-width="3" stroke-linecap="round" stroke-linejoin="round"/>
<path d="M60.6274 254.41H55.5765" stroke="#E0A13A" stroke-width="3" stroke-linecap="round" stroke-linejoin="round"/>
<path fill-rule="evenodd" clip-rule="evenodd" d="M69.1658 245.041C69.1658 245.041 55.0913 245.049 55.0693 245.049C50.0093 245.08 46.8761 248.409 46.8761 253.487V270.347C46.8761 275.451 50.0331 278.793 55.1371 278.793C55.1371 278.793 69.2098 278.787 69.2336 278.787C74.2936 278.756 77.4286 275.425 77.4286 270.347V253.487C77.4286 248.383 74.2698 245.041 69.1658 245.041Z" stroke="#E0A13A" stroke-width="3" stroke-linecap="round" stroke-linejoin="round"/>
<path d="M68.8131 368.743H55.5764" stroke="#E0A13A" stroke-width="3" stroke-linecap="round" stroke-linejoin="round"/>
<path d="M68.8131 361.068H55.5764" stroke="#E0A13A" stroke-width="3" stroke-linecap="round" stroke-linejoin="round"/>
<path d="M60.6274 353.41H55.5765" stroke="#E0A13A" stroke-width="3" stroke-linecap="round" stroke-linejoin="round"/>
<path fill-rule="evenodd" clip-rule="evenodd" d="M69.1658 344.041C69.1658 344.041 55.0913 344.049 55.0693 344.049C50.0093 344.08 46.8761 347.409 46.8761 352.487V369.347C46.8761 374.451 50.0331 377.793 55.1371 377.793C55.1371 377.793 69.2098 377.787 69.2336 377.787C74.2936 377.756 77.4286 374.425 77.4286 369.347V352.487C77.4286 347.383 74.2698 344.041 69.1658 344.041Z" stroke="#E0A13A" stroke-width="3" stroke-linecap="round" stroke-linejoin="round"/>
<path d="M68.8131 467.743H55.5764" stroke="#E0A13A" stroke-width="3" stroke-linecap="round" stroke-linejoin="round"/>
<path d="M68.8131 460.068H55.5764" stroke="#E0A13A" stroke-width="3" stroke-linecap="round" stroke-linejoin="round"/>
<path d="M60.6274 452.41H55.5765" stroke="#E0A13A" stroke-width="3" stroke-linecap="round" stroke-linejoin="round"/>
<path fill-rule="evenodd" clip-rule="evenodd" d="M69.1658 443.041C69.1658 443.041 55.0913 443.049 55.0693 443.049C50.0093 443.08 46.8761 446.409 46.8761 451.487V468.347C46.8761 473.451 50.0331 476.793 55.1371 476.793C55.1371 476.793 69.2098 476.787 69.2336 476.787C74.2936 476.756 77.4286 473.425 77.4286 468.347V451.487C77.4286 446.383 74.2698 443.041 69.1658 443.041Z" stroke="#E0A13A" stroke-width="3" stroke-linecap="round" stroke-linejoin="round"/>
<defs>
<filter id="filter0_d" x="0" y="0" width="669" height="524" filterUnits="userSpaceOnUse" color-interpolation-filters="sRGB">
<feFlood flood-opacity="0" result="BackgroundImageFix"/>
<feColorMatrix in="SourceAlpha" type="matrix" values="0 0 0 0 0 0 0 0 0 0 0 0 0 0 0 0 0 0 127 0"/>
<feOffset/>
<feGaussianBlur stdDeviation="5"/>
<feColorMatrix type="matrix" values="0 0 0 0 0 0 0 0 0 0 0 0 0 0 0 0 0 0 0.04 0"/>
<feBlend mode="normal" in2="BackgroundImageFix" result="effect1_dropShadow"/>
<feBlend mode="normal" in="SourceGraphic" in2="effect1_dropShadow" result="shape"/>
</filter>
</defs>
</svg>