<svg width="242" height="197" viewBox="0 0 242 197" fill="none" xmlns="http://www.w3.org/2000/svg">
<path d="M12.5602 180.125C13.2962 180.509 13.8722 181.037 14.2882 181.709C14.7042 182.381 14.9122 183.157 14.9122 184.037C14.9122 185.413 14.4242 186.557 13.4482 187.469C12.4722 188.381 11.2802 188.837 9.87219 188.837H2.67219V172.037H9.34419C10.7202 172.037 11.8802 172.485 12.8242 173.381C13.7842 174.261 14.2642 175.365 14.2642 176.693C14.2642 178.149 13.6962 179.293 12.5602 180.125ZM9.34419 174.629H5.43219V179.045H9.34419C9.95219 179.045 10.4642 178.837 10.8802 178.421C11.2962 177.989 11.5042 177.461 11.5042 176.837C11.5042 176.213 11.2962 175.693 10.8802 175.277C10.4642 174.845 9.95219 174.629 9.34419 174.629ZM9.87219 186.245C10.5122 186.245 11.0482 186.021 11.4802 185.573C11.9282 185.109 12.1522 184.549 12.1522 183.893C12.1522 183.237 11.9282 182.685 11.4802 182.237C11.0482 181.773 10.5122 181.541 9.87219 181.541H5.43219V186.245H9.87219ZM25.475 176.837H28.067V188.837H25.475V187.301C24.691 188.533 23.451 189.149 21.755 189.149C20.379 189.149 19.267 188.709 18.419 187.829C17.571 186.949 17.147 185.741 17.147 184.205V176.837H19.739V183.941C19.739 184.837 19.979 185.525 20.459 186.005C20.939 186.485 21.595 186.725 22.427 186.725C23.339 186.725 24.075 186.445 24.635 185.885C25.195 185.309 25.475 184.437 25.475 183.269V176.837ZM41.7059 188.837H38.6099L33.6899 183.293V188.837H31.0979V172.037H33.6899V182.141L38.3459 176.837H41.5139L36.2339 182.717L41.7059 188.837ZM51.0688 176.837H53.6608V188.837H51.0688V187.301C50.2848 188.533 49.0448 189.149 47.3488 189.149C45.9728 189.149 44.8608 188.709 44.0128 187.829C43.1648 186.949 42.7408 185.741 42.7408 184.205V176.837H45.3328V183.941C45.3328 184.837 45.5728 185.525 46.0528 186.005C46.5328 186.485 47.1888 186.725 48.0208 186.725C48.9328 186.725 49.6688 186.445 50.2288 185.885C50.7888 185.309 51.0688 184.437 51.0688 183.269V176.837ZM69.3877 179.333H66.4117V185.093C66.4117 185.589 66.5237 185.949 66.7477 186.173C66.9717 186.381 67.2997 186.501 67.7317 186.533C68.1797 186.549 68.7317 186.541 69.3877 186.509V188.837C67.4037 189.077 65.9797 188.909 65.1157 188.333C64.2517 187.741 63.8197 186.661 63.8197 185.093V179.333H61.6117V176.837H63.8197V174.245L66.4117 173.477V176.837H69.3877V179.333ZM74.1866 174.557C73.8666 174.877 73.4826 175.037 73.0346 175.037C72.5866 175.037 72.1946 174.877 71.8586 174.557C71.5386 174.221 71.3786 173.829 71.3786 173.381C71.3786 172.933 71.5386 172.549 71.8586 172.229C72.1786 171.893 72.5706 171.725 73.0346 171.725C73.4986 171.725 73.8906 171.893 74.2106 172.229C74.5306 172.549 74.6906 172.933 74.6906 173.381C74.6906 173.829 74.5226 174.221 74.1866 174.557ZM71.7386 188.837V176.837H74.3306V188.837H71.7386ZM86.8441 172.037H89.4361V188.837H86.8441V187.109C85.8681 188.469 84.4681 189.149 82.6441 189.149C80.9961 189.149 79.5881 188.541 78.4201 187.325C77.2521 186.093 76.6681 184.597 76.6681 182.837C76.6681 181.061 77.2521 179.565 78.4201 178.349C79.5881 177.133 80.9961 176.525 82.6441 176.525C84.4681 176.525 85.8681 177.197 86.8441 178.541V172.037ZM80.3401 185.597C81.0601 186.317 81.9641 186.677 83.0521 186.677C84.1401 186.677 85.0441 186.317 85.7641 185.597C86.4841 184.861 86.8441 183.941 86.8441 182.837C86.8441 181.733 86.4841 180.821 85.7641 180.101C85.0441 179.365 84.1401 178.997 83.0521 178.997C81.9641 178.997 81.0601 179.365 80.3401 180.101C79.6201 180.821 79.2601 181.733 79.2601 182.837C79.2601 183.941 79.6201 184.861 80.3401 185.597ZM101.961 176.837H104.553V188.837H101.961V187.109C100.985 188.469 99.5853 189.149 97.7613 189.149C96.1133 189.149 94.7053 188.541 93.5373 187.325C92.3693 186.093 91.7853 184.597 91.7853 182.837C91.7853 181.061 92.3693 179.565 93.5373 178.349C94.7053 177.133 96.1133 176.525 97.7613 176.525C99.5853 176.525 100.985 177.197 101.961 178.541V176.837ZM95.4573 185.597C96.1773 186.317 97.0813 186.677 98.1693 186.677C99.2573 186.677 100.161 186.317 100.881 185.597C101.601 184.861 101.961 183.941 101.961 182.837C101.961 181.733 101.601 180.821 100.881 180.101C100.161 179.365 99.2573 178.997 98.1693 178.997C97.0813 178.997 96.1773 179.365 95.4573 180.101C94.7373 180.821 94.3773 181.733 94.3773 182.837C94.3773 183.941 94.7373 184.861 95.4573 185.597ZM118.182 188.837H115.087L110.167 183.293V188.837H107.575V172.037H110.167V182.141L114.823 176.837H117.991L112.711 182.717L118.182 188.837ZM135.43 172.037H138.022V188.837H135.43V187.109C134.454 188.469 133.054 189.149 131.23 189.149C129.582 189.149 128.174 188.541 127.006 187.325C125.838 186.093 125.254 184.597 125.254 182.837C125.254 181.061 125.838 179.565 127.006 178.349C128.174 177.133 129.582 176.525 131.23 176.525C133.054 176.525 134.454 177.197 135.43 178.541V172.037ZM128.926 185.597C129.646 186.317 130.55 186.677 131.638 186.677C132.726 186.677 133.63 186.317 134.35 185.597C135.07 184.861 135.43 183.941 135.43 182.837C135.43 181.733 135.07 180.821 134.35 180.101C133.63 179.365 132.726 178.997 131.638 178.997C130.55 178.997 129.646 179.365 128.926 180.101C128.206 180.821 127.846 181.733 127.846 182.837C127.846 183.941 128.206 184.861 128.926 185.597ZM143.491 174.557C143.171 174.877 142.787 175.037 142.339 175.037C141.891 175.037 141.499 174.877 141.163 174.557C140.843 174.221 140.683 173.829 140.683 173.381C140.683 172.933 140.843 172.549 141.163 172.229C141.483 171.893 141.875 171.725 142.339 171.725C142.803 171.725 143.195 171.893 143.515 172.229C143.835 172.549 143.995 172.933 143.995 173.381C143.995 173.829 143.827 174.221 143.491 174.557ZM141.043 188.837V176.837H143.635V188.837H141.043ZM153.341 179.333H150.365V185.093C150.365 185.589 150.477 185.949 150.701 186.173C150.925 186.381 151.253 186.501 151.685 186.533C152.133 186.549 152.685 186.541 153.341 186.509V188.837C151.357 189.077 149.933 188.909 149.069 188.333C148.205 187.741 147.773 186.661 147.773 185.093V179.333H145.565V176.837H147.773V174.245L150.365 173.477V176.837H153.341V179.333ZM157.24 183.941C157.432 184.853 157.872 185.557 158.56 186.053C159.248 186.533 160.088 186.773 161.08 186.773C162.456 186.773 163.488 186.277 164.176 185.285L166.312 186.533C165.128 188.277 163.376 189.149 161.056 189.149C159.104 189.149 157.528 188.557 156.328 187.373C155.128 186.173 154.528 184.661 154.528 182.837C154.528 181.045 155.12 179.549 156.304 178.349C157.488 177.133 159.008 176.525 160.864 176.525C162.624 176.525 164.064 177.141 165.184 178.373C166.32 179.605 166.888 181.101 166.888 182.861C166.888 183.133 166.856 183.493 166.792 183.941H157.24ZM157.215 181.829H164.272C164.096 180.853 163.688 180.117 163.048 179.621C162.424 179.125 161.688 178.877 160.84 178.877C159.88 178.877 159.08 179.141 158.44 179.669C157.8 180.197 157.392 180.917 157.215 181.829ZM182.272 176.525C183.632 176.525 184.728 176.965 185.56 177.845C186.392 178.725 186.808 179.909 186.808 181.397V188.837H184.216V181.565C184.216 180.733 184.008 180.093 183.592 179.645C183.176 179.181 182.608 178.949 181.888 178.949C181.088 178.949 180.448 179.213 179.968 179.741C179.504 180.269 179.272 181.061 179.272 182.117V188.837H176.68V181.565C176.68 180.733 176.48 180.093 176.08 179.645C175.696 179.181 175.144 178.949 174.424 178.949C173.64 178.949 173 179.221 172.504 179.765C172.008 180.293 171.76 181.077 171.76 182.117V188.837H169.168V176.837H171.76V178.277C172.528 177.109 173.672 176.525 175.192 176.525C176.728 176.525 177.864 177.157 178.6 178.421C179.4 177.157 180.624 176.525 182.272 176.525ZM197.67 176.837H200.262V188.837H197.67V187.301C196.886 188.533 195.646 189.149 193.95 189.149C192.574 189.149 191.462 188.709 190.614 187.829C189.766 186.949 189.342 185.741 189.342 184.205V176.837H191.934V183.941C191.934 184.837 192.174 185.525 192.654 186.005C193.134 186.485 193.79 186.725 194.622 186.725C195.534 186.725 196.27 186.445 196.83 185.885C197.39 185.309 197.67 184.437 197.67 183.269V176.837ZM213.901 188.837H210.805L205.885 183.293V188.837H203.293V172.037H205.885V182.141L210.541 176.837H213.709L208.429 182.717L213.901 188.837ZM224.188 176.837H226.78V188.837H224.188V187.109C223.212 188.469 221.812 189.149 219.988 189.149C218.34 189.149 216.932 188.541 215.764 187.325C214.596 186.093 214.012 184.597 214.012 182.837C214.012 181.061 214.596 179.565 215.764 178.349C216.932 177.133 218.34 176.525 219.988 176.525C221.812 176.525 223.212 177.197 224.188 178.541V176.837ZM217.684 185.597C218.404 186.317 219.308 186.677 220.396 186.677C221.484 186.677 222.388 186.317 223.108 185.597C223.828 184.861 224.188 183.941 224.188 182.837C224.188 181.733 223.828 180.821 223.108 180.101C222.388 179.365 221.484 178.997 220.396 178.997C219.308 178.997 218.404 179.365 217.684 180.101C216.964 180.821 216.604 181.733 216.604 182.837C216.604 183.941 216.964 184.861 217.684 185.597ZM236.113 176.525C237.489 176.525 238.601 176.965 239.449 177.845C240.297 178.725 240.721 179.933 240.721 181.469V188.837H238.129V181.733C238.129 180.837 237.889 180.149 237.409 179.669C236.929 179.189 236.273 178.949 235.441 178.949C234.529 178.949 233.793 179.237 233.233 179.813C232.673 180.373 232.393 181.237 232.393 182.405V188.837H229.801V176.837H232.393V178.373C233.177 177.141 234.417 176.525 236.113 176.525Z" fill="#8697B3"/>
<path d="M177.908 119.521H174.123C171.497 113.282 171.495 107.194 174.12 100.985H177.908C182.13 100.985 185.564 97.5508 185.564 93.3288C185.564 89.1071 182.13 85.6723 177.908 85.6723H162.676C164.615 83.4575 165.793 80.5617 165.793 77.3937V53.4046C165.793 46.4643 160.147 40.8181 153.207 40.8181H147.013C147.539 39.7705 147.837 38.5892 147.837 37.3394C147.837 33.041 144.344 29.5438 140.05 29.5438H137.92C136.018 24.8434 136.017 20.2523 137.916 15.582H140.05C144.344 15.582 147.837 12.0849 147.837 7.7865C147.837 3.49299 144.344 -0.00012207 140.05 -0.00012207H67.3899C54.9465 -0.00012207 44.823 10.1196 44.823 22.5585C44.823 28.574 47.1739 34.2377 51.4421 38.5062C52.2908 39.3549 53.1966 40.1243 54.1472 40.8178H52.4792C48.2575 40.8178 44.823 44.2524 44.823 48.4744C44.823 52.6964 48.2575 56.1309 52.4792 56.1309H56.2673C58.8916 62.3385 58.8907 68.427 56.2644 74.6665H52.4792C48.2575 74.6665 44.823 78.1011 44.823 82.3231C44.823 83.9382 45.327 85.4371 46.184 86.6734C41.6842 88.5933 38.522 93.0632 38.522 98.2587V122.248C38.522 129.188 44.1641 134.834 51.0992 134.834H177.908C182.129 134.834 185.564 131.4 185.564 127.178C185.564 122.956 182.13 119.521 177.908 119.521ZM177.908 89.9801C179.754 89.9801 181.256 91.4824 181.256 93.3288C181.256 95.1752 179.754 96.6775 177.908 96.6775H139.034C137.845 96.6775 136.88 97.6418 136.88 98.8314C136.88 100.021 137.845 100.985 139.034 100.985H169.499C168.657 103.349 168.143 105.723 167.948 108.099C167.948 108.099 167.088 112.363 169.504 119.521H54.4582C54.1205 119.521 53.835 119.236 53.835 118.898V101.609C53.835 101.271 54.1205 100.986 54.4582 100.986H75.7969L75.7983 108.06C75.6624 110.177 76.6966 111.012 77.3316 111.322C77.9752 111.637 79.2974 111.942 80.9244 110.455C80.9356 110.444 80.9468 110.434 80.9577 110.424L86.9784 104.681L92.9991 110.424C93.01 110.434 93.0212 110.445 93.0324 110.455C93.9847 111.325 94.8325 111.582 95.5019 111.582C95.9801 111.582 96.3672 111.451 96.636 111.318C97.2719 111.005 98.3046 110.167 98.1585 108.054L98.1613 100.986H128.429C129.619 100.986 130.583 100.021 130.583 98.8317C130.583 97.6421 129.619 96.6777 128.429 96.6777H98.1628L98.1656 89.9804H177.908V89.9801ZM62.4399 63.2455C62.2457 60.869 61.721 58.4959 60.8798 56.1315H149.858C150.196 56.1315 150.481 56.4169 150.481 56.7547V74.0436C150.481 74.3813 150.196 74.6668 149.858 74.6668H98.172L98.1748 67.5528H113.249C114.439 67.5528 115.403 66.5884 115.403 65.3988C115.403 64.2093 114.439 63.2449 113.249 63.2449H62.4399V63.2455ZM75.7914 74.6671H60.875C61.7156 72.2995 62.2411 69.9264 62.4376 67.5531H75.79L75.7914 74.6671ZM93.8669 67.5534L93.8514 105.283L88.4646 100.146C87.6326 99.3518 86.3236 99.3518 85.4913 100.146L80.1053 105.283L80.0975 67.5531H93.8669V67.5534ZM49.1308 22.5588C49.1308 12.4953 57.3218 4.30804 67.3899 4.30804H140.05C141.968 4.30804 143.529 5.86864 143.529 7.78679C143.529 9.70982 141.968 11.2744 140.05 11.2744H100.344C99.1541 11.2744 98.1898 12.2388 98.1898 13.4284C98.1898 14.6179 99.1541 15.5823 100.344 15.5823H133.327C131.806 20.2159 131.808 24.8905 133.333 29.5441H67.3899C65.5375 29.5441 63.7836 28.8144 62.4597 27.497C61.1346 26.165 60.4048 24.4114 60.4048 22.5588C60.4048 18.7118 63.5384 15.5823 67.3899 15.5823H89.7383C90.9278 15.5823 91.8922 14.6179 91.8922 13.4284C91.8922 12.2388 90.9278 11.2744 89.7383 11.2744H67.3899C61.163 11.2744 56.0969 16.3365 56.0969 22.5588C56.0969 25.5579 57.2721 28.3908 59.4134 30.543C61.5582 32.6768 64.3908 33.852 67.3899 33.852H140.05C141.968 33.852 143.529 35.4166 143.529 37.3397C143.529 39.2578 141.968 40.8184 140.05 40.8184H67.3899C62.5252 40.8184 57.9433 38.9158 54.4884 35.4606C51.0335 32.0057 49.1308 27.4238 49.1308 22.5588ZM52.4792 51.8236C50.6328 51.8236 49.1308 50.3216 49.1308 48.4749C49.1308 46.6286 50.6328 45.1263 52.4792 45.1263H153.207C157.772 45.1263 161.485 48.84 161.485 53.4049V77.394C161.485 81.9589 157.772 85.6726 153.207 85.6726H98.1674L98.1702 78.9753H149.857C152.576 78.9753 154.789 76.763 154.789 74.0442V56.7552C154.789 54.0361 152.576 51.8242 149.857 51.8242H52.4792V51.8236ZM52.4792 78.975H75.7923L75.7937 85.6723H52.4795C50.6331 85.6723 49.1311 84.17 49.1311 82.3236C49.1308 80.4773 50.6328 78.975 52.4792 78.975ZM177.908 130.526H51.0992C46.5395 130.526 42.8298 126.813 42.8298 122.248V98.2587C42.8298 93.6938 46.5395 89.9801 51.0992 89.9801H75.7943L75.7957 96.6775H54.4582C51.7391 96.6775 49.5272 98.8897 49.5272 101.609V118.897C49.5272 121.617 51.7394 123.829 54.4582 123.829H177.908C179.754 123.829 181.256 125.331 181.256 127.177C181.256 129.024 179.754 130.526 177.908 130.526Z" fill="#8697B2"/>
<circle cx="174.481" cy="112.86" r="28.0784" fill="#8697B2"/>
<path d="M165.167 103.547L184.086 122.466M184.086 103.547L165.167 122.466" stroke="#F3FAFE" stroke-width="6" stroke-linecap="round" stroke-linejoin="round"/>
</svg>
